<svg width="24" height="24" viewBox="0 0 24 24" fill="none" xmlns="http://www.w3.org/2000/svg">
<path d="M18.9131 12.1304C18.9131 12.7826 18.3913 13.3043 17.7391 13.3043H13.0435V17.7391C13.0435 18.3913 12.5218 18.913 11.8696 18.913C11.2174 18.913 10.6957 18.3913 10.6957 17.7391V13.3043H6.26089C5.60871 13.3043 5.08698 12.7826 5.08698 12.1304C5.08698 11.4782 5.60871 10.9565 6.26089 10.9565H10.6957V6.26086C10.6957 5.60868 11.2174 5.08694 11.8696 5.08694C12.5218 5.08694 13.0435 5.60868 13.0435 6.26086V10.9565H17.7391C18.3913 10.9565 18.9131 11.4782 18.9131 12.1304Z" fill="#212121"/>
</svg>
